<svg width="42" height="44" viewBox="0 0 42 44" fill="none" xmlns="http://www.w3.org/2000/svg">
<rect x="1.85166" y="1.08835" width="38.85" height="41.2435" rx="19.425" fill="#191414" stroke="url(#paint0_linear_819_3)" stroke-width="1.8"/>
<path d="M20.4802 8.72855C13.0355 9.13091 7.32617 15.4929 7.72851 22.9382C8.13087 30.3839 14.4925 36.093 21.9373 35.6906C29.3828 35.2882 35.0915 28.9268 34.6892 21.4811C34.2868 14.0363 27.926 8.32615 20.4802 8.72855ZM27.7129 27.8381C27.4929 28.2472 26.9813 28.4008 26.5722 28.1791C23.3027 26.4167 19.2947 26.1942 14.6603 27.5199C14.2137 27.6474 13.7476 27.3884 13.6202 26.9416C13.4922 26.4948 13.75 26.0288 14.1978 25.9013C19.2693 24.45 23.7013 24.7176 27.372 26.6973C27.7811 26.919 27.9346 27.4289 27.7129 27.8381ZM29.1645 24.0777C28.887 24.5892 28.2483 24.7803 27.7377 24.5027C23.9938 22.4707 18.4356 22.1242 14.22 23.6569C13.6732 23.8548 13.0693 23.5733 12.8706 23.0275C12.6731 22.4806 12.9549 21.8777 13.5006 21.6787C18.316 19.9285 24.441 20.3192 28.7403 22.6516C29.2509 22.9291 29.4421 23.5677 29.1645 24.0777ZM29.0996 20.2476C24.6155 17.9017 17.4346 18.0518 13.3546 19.535C12.6994 19.7731 11.9747 19.4351 11.7368 18.7798C11.4989 18.1243 11.8366 17.4 12.4922 17.1615C17.1758 15.4585 25.1067 15.31 30.2692 18.0093C30.8888 18.3325 31.127 19.0957 30.8036 19.7133C30.4819 20.3316 29.716 20.5711 29.0996 20.2476Z" fill="url(#paint1_linear_819_3)"/>
<defs>
<linearGradient id="paint0_linear_819_3" x1="34.6938" y1="1.5" x2="6.19321" y2="42.9986" gradientUnits="userSpaceOnUse">
<stop stop-color="#5B7252"/>
<stop offset="0.447917" stop-color="#A4A4A4"/>
<stop offset="1" stop-color="#4B4841"/>
</linearGradient>
<linearGradient id="paint1_linear_819_3" x1="20.709" y1="12.95" x2="21.9401" y2="35.7292" gradientUnits="userSpaceOnUse">
<stop stop-color="#1ED760"/>
<stop offset="1" stop-color="#34A08D"/>
</linearGradient>
</defs>
</svg>
