<svg width="41" height="43" viewBox="0 0 41 43" fill="none" xmlns="http://www.w3.org/2000/svg">
<rect x="0.899878" y="0.9" width="38.85" height="41.2" rx="19.425" fill="url(#paint0_linear_819_24)" stroke="white" stroke-width="1.8"/>
<mask id="mask0_819_24" style="mask-type:alpha" maskUnits="userSpaceOnUse" x="-1" y="0" width="42" height="43">
<rect x="0.899878" y="0.9" width="38.85" height="41.2" rx="19.425" fill="url(#paint1_linear_819_24)" stroke="white" stroke-width="1.8"/>
</mask>
<g mask="url(#mask0_819_24)">
<path d="M4 31.8831C5.22869 31.4665 6.36011 31.086 7.40208 30.74C17.0152 27.5481 26.5987 36.6793 34.141 29.918C36.0548 28.2024 38.316 26.021 41 23.2709L37.9706 33.8112C36.412 35.5762 34.9518 36.9619 33.5596 38.0293C26.0874 43.7587 14.4112 30.7759 7.07062 36.673C6.89522 36.8139 6.72171 36.9614 6.55041 37.1155L4 31.8831Z" fill="url(#paint2_linear_819_24)"/>
<path d="M26.4363 13.7427L22.9143 10.0423L10.0897 23.2116L9.8728 27.0079L13.3019 26.7946L26.4363 13.7427ZM29.5496 10.662C30.046 10.153 30.046 9.3242 29.5496 8.81517L27.8273 6.85272C27.3309 6.34369 26.5227 6.34369 26.0263 6.85272L24.1091 8.81517L27.4976 12.6125L29.5496 10.662Z" fill="white"/>
<rect x="0.899878" y="1.17094" width="38.85" height="41.2" rx="19.425" stroke="white" stroke-width="1.8"/>
</g>
<defs>
<linearGradient id="paint0_linear_819_24" x1="10.3732" y1="10.8007" x2="27.4518" y2="33.9775" gradientUnits="userSpaceOnUse">
<stop stop-color="#8381C5"/>
<stop offset="0.651329" stop-color="#805DB7"/>
<stop offset="1" stop-color="#943FC0"/>
</linearGradient>
<linearGradient id="paint1_linear_819_24" x1="10.3732" y1="10.8007" x2="27.4518" y2="33.9775" gradientUnits="userSpaceOnUse">
<stop stop-color="#8381C5"/>
<stop offset="0.651329" stop-color="#805DB7"/>
<stop offset="1" stop-color="#943FC0"/>
</linearGradient>
<linearGradient id="paint2_linear_819_24" x1="9.065" y1="28.8689" x2="38.4853" y2="28.8689" gradientUnits="userSpaceOnUse">
<stop stop-color="white"/>
<stop offset="1" stop-color="#9EA5E4" stop-opacity="0.25"/>
</linearGradient>
</defs>
</svg>
