<svg width="29" height="29" viewBox="0 0 29 29" fill="none" xmlns="http://www.w3.org/2000/svg">
<path d="M13.6634 0.738407C6.11748 1.14621 0.3306 7.59427 0.738408 15.1404C1.14623 22.6868 7.59429 28.4732 15.1402 28.0654C22.687 27.6575 28.4732 21.21 28.0654 13.6636C27.6576 6.11795 21.2102 0.331218 13.6633 0.739069L13.6634 0.738407ZM20.9944 20.1066C20.7713 20.5212 20.2528 20.6768 19.8381 20.4522C16.5242 18.6659 12.4617 18.4404 7.76436 19.7841C7.31169 19.9133 6.83932 19.6508 6.71013 19.198C6.58044 18.7451 6.84176 18.2728 7.29558 18.1436C12.4361 16.6727 16.9283 16.9439 20.6488 18.9503C21.0635 19.175 21.219 19.6919 20.9944 20.1066ZM22.4656 16.2953C22.1844 16.8137 21.537 17.0074 21.0195 16.7261C17.2248 14.6665 11.591 14.3153 7.31811 15.8687C6.76392 16.0694 6.15172 15.784 5.95034 15.2308C5.7502 14.6766 6.03578 14.0655 6.58893 13.8638C11.4697 12.09 17.678 12.4859 22.0357 14.8498C22.5533 15.1312 22.747 15.7783 22.4656 16.2953ZM22.3999 12.4134C17.8549 10.0357 10.5764 10.1878 6.44091 11.6911C5.77683 11.9324 5.04225 11.5898 4.80116 10.9257C4.56005 10.2613 4.90231 9.5272 5.56685 9.28543C10.3141 7.5594 18.3527 7.40889 23.5854 10.1448C24.2134 10.4723 24.4549 11.2459 24.1271 11.8718C23.8009 12.4985 23.0253 12.7412 22.4005 12.4133L22.3999 12.4134Z" fill="url(#paint0_linear_642_3)"/>
<defs>
<linearGradient id="paint0_linear_642_3" x1="13.8953" y1="5.01699" x2="15.143" y2="28.1045" gradientUnits="userSpaceOnUse">
<stop stop-color="#1ED760"/>
<stop offset="1" stop-color="#34A08D"/>
</linearGradient>
</defs>
</svg>
