<svg width="48" height="48" viewBox="0 0 48 48" fill="none" xmlns="http://www.w3.org/2000/svg">
<g clip-path="url(#clip0_596_89)">
<path d="M24.6904 39.9837C23.9781 40.5203 22.9967 40.5205 22.2842 39.9842L5.05 27.0121L3.12239 28.4633C2.05959 29.2634 2.05959 30.8588 3.12239 31.6589L22.2971 46.0944C23.0094 46.6306 23.9906 46.6306 24.7029 46.0944L43.8753 31.6607C44.9388 30.86 44.9379 29.2633 43.8736 28.4638L41.925 27L24.6904 39.9837Z" fill="white" fill-opacity="0.3"/>
<path d="M22.2724 35.0447C22.9945 35.6066 24.0057 35.6069 24.7281 35.0454L41.9125 21.6875L43.9749 20.0792C45.0025 19.2778 45.0016 17.7234 43.9729 16.9234L24.7279 1.95502C24.0057 1.39329 22.9943 1.39329 22.2721 1.95502L3.03199 16.9196C2.0018 17.7208 2.00263 19.2781 3.03367 20.0783L5.075 21.6625L22.2724 35.0447Z" fill="white"/>
</g>
<defs>
<clipPath id="clip0_596_89">
<rect width="48" height="48" fill="white"/>
</clipPath>
</defs>
</svg>
