<svg width="48" height="48" viewBox="0 0 48 48" fill="none" xmlns="http://www.w3.org/2000/svg">
<g clip-path="url(#clip0_755_8)">
<path fill-rule="evenodd" clip-rule="evenodd" d="M18 24C18 20.9107 20.69 18.4 24 18.4C27.31 18.4 30 20.9107 30 24C30 27.0893 27.31 29.6 24 29.6C20.69 29.6 18 27.0893 18 24Z" fill="white"/>
<path fill-rule="evenodd" clip-rule="evenodd" d="M24 10C14.9509 10 7.09738 14.7537 3.12175 21.73C2.31981 23.1372 2.31981 24.8628 3.12175 26.27C7.09738 33.2463 14.9509 38 24 38C33.0491 38 40.9026 33.2463 44.8782 26.27C45.6802 24.8628 45.6802 23.1372 44.8784 21.7299C40.9043 14.7537 33.0581 10 24 10ZM14 24C14 29.152 18.48 33.3333 24 33.3333C29.52 33.3333 34 29.152 34 24C34 18.848 29.52 14.6667 24 14.6667C18.48 14.6667 14 18.848 14 24Z" fill="white" fill-opacity="0.3"/>
</g>
<defs>
<clipPath id="clip0_755_8">
<rect width="48" height="48" fill="white"/>
</clipPath>
</defs>
</svg>
