<svg width="50" height="46" viewBox="0 0 50 46" fill="none" xmlns="http://www.w3.org/2000/svg">
<g clip-path="url(#clip0_662_59)">
<path d="M46.6154 15.3333L49.2116 12.1133C48.2693 11.4233 38.9616 3.83334 25 3.83334C11.0385 3.83334 1.73082 11.4233 0.807739 12.1133L24.9808 42.1283L25 42.1667L25.0193 42.1475L38.4616 25.4533V15.3333H46.6154Z" fill="white" fill-opacity="0.3"/>
<path d="M10.4807 24.1308L24.9807 42.1475L24.9999 42.1667L25.0192 42.1475L38.4615 25.4533V23.3642C36.4038 21.965 31.5576 19.1667 24.9999 19.1667C16.6153 19.1667 11.0384 23.7283 10.4807 24.1308ZM42.3076 19.1667V34.5H46.1538V19.1667H42.3076ZM42.3076 42.1667H46.1538V38.3333H42.3076V42.1667Z" fill="url(#paint0_linear_662_59)"/>
<path d="M42.3086 42.1667H46.1547V38.3334H42.3086V42.1667ZM42.3086 19.1667V34.5H46.1547V19.1667H42.3086Z" fill="url(#paint1_linear_662_59)"/>
</g>
<defs>
<linearGradient id="paint0_linear_662_59" x1="46.2948" y1="19.1667" x2="25.7262" y2="51.0688" gradientUnits="userSpaceOnUse">
<stop stop-color="#F58902"/>
<stop offset="0.0001" stop-color="#FFE178"/>
<stop offset="1" stop-color="#FFB800"/>
</linearGradient>
<linearGradient id="paint1_linear_662_59" x1="46.17" y1="19.1667" x2="38.823" y2="20.3953" gradientUnits="userSpaceOnUse">
<stop stop-color="#FF004B"/>
<stop offset="1" stop-color="#E00B7E"/>
</linearGradient>
<clipPath id="clip0_662_59">
<rect width="50" height="46" fill="white"/>
</clipPath>
</defs>
</svg>
