<svg width="26" height="26" viewBox="0 0 26 26" fill="none" xmlns="http://www.w3.org/2000/svg">
<g clip-path="url(#clip0_683_50)">
<path d="M6.91138 6.01084C7.33748 5.58774 7.33774 4.89865 6.91195 4.47523L6.49914 4.06472C6.07641 3.64433 5.39321 3.64528 4.97165 4.06684C4.54925 4.48924 4.54925 5.17408 4.97165 5.59647L5.38332 6.00814C5.80497 6.42979 6.48824 6.431 6.91138 6.01084ZM4.69434 12.4583C4.69434 11.86 4.20931 11.375 3.611 11.375H2.52767C1.92936 11.375 1.44434 11.86 1.44434 12.4583C1.44434 13.0566 1.92936 13.5417 2.52767 13.5417H3.611C4.20931 13.5417 4.69434 13.0566 4.69434 12.4583ZM14.4443 1.67916C14.4443 1.08085 13.9593 0.595825 13.361 0.595825C12.7627 0.595825 12.2777 1.08085 12.2777 1.67916V2.70832C12.2777 3.30663 12.7627 3.79166 13.361 3.79166C13.9593 3.79166 14.4443 3.30663 14.4443 2.70833V1.67916ZM21.7514 5.59541C22.1732 5.1736 22.1732 4.48972 21.7514 4.06791C21.3296 3.6461 20.6457 3.6461 20.2239 4.06791L19.8123 4.47957C19.3904 4.90138 19.3904 5.58527 19.8123 6.00708C20.2341 6.42888 20.9179 6.42888 21.3398 6.00708L21.7514 5.59541ZM19.796 18.915C19.3768 19.3341 19.3759 20.0134 19.7939 20.4338L20.2152 20.8575C20.6355 21.2801 21.3191 21.281 21.7406 20.8596C22.1621 20.4381 22.1611 19.7545 21.7385 19.3342L21.3148 18.9129C20.8945 18.4949 20.2152 18.4958 19.796 18.915ZM23.111 11.375C22.5127 11.375 22.0277 11.86 22.0277 12.4583C22.0277 13.0566 22.5127 13.5417 23.111 13.5417H24.1943C24.7926 13.5417 25.2777 13.0566 25.2777 12.4583C25.2777 11.86 24.7926 11.375 24.1943 11.375H23.111ZM13.361 5.95832C9.77517 5.95832 6.861 8.87249 6.861 12.4583C6.861 16.0442 9.77517 18.9583 13.361 18.9583C16.9468 18.9583 19.861 16.0442 19.861 12.4583C19.861 8.87249 16.9468 5.95832 13.361 5.95832ZM12.2777 23.2375C12.2777 23.8358 12.7627 24.3208 13.361 24.3208C13.9593 24.3208 14.4443 23.8358 14.4443 23.2375V22.2083C14.4443 21.61 13.9593 21.125 13.361 21.125C12.7627 21.125 12.2777 21.61 12.2777 22.2083V23.2375ZM4.96633 19.3213C4.54653 19.7434 4.54748 20.4256 4.96846 20.8466C5.3911 21.2693 6.07662 21.2683 6.49808 20.8445L6.91401 20.4262C7.33381 20.0041 7.33286 19.3218 6.91188 18.9009C6.48924 18.4782 5.80372 18.4792 5.38226 18.903L4.96633 19.3213Z" fill="url(#paint0_linear_683_50)"/>
</g>
<defs>
<linearGradient id="paint0_linear_683_50" x1="20.7756" y1="4.07472" x2="6.53797" y2="20.5635" gradientUnits="userSpaceOnUse">
<stop stop-color="white"/>
<stop offset="0.286458" stop-color="white"/>
<stop offset="0.666667" stop-color="#E9E9E9"/>
<stop offset="1" stop-color="#D4D4D4"/>
</linearGradient>
<clipPath id="clip0_683_50">
<rect width="26" height="26" fill="white"/>
</clipPath>
</defs>
</svg>
