<svg width="29" height="29" viewBox="0 0 29 29" fill="none" xmlns="http://www.w3.org/2000/svg">
<g clip-path="url(#clip0_851_100)">
<path d="M9.56934 14.9388C9.56934 11.9991 11.9504 9.61804 14.8901 9.61804C17.8299 9.61804 20.2109 11.9991 20.2109 14.9388C20.2109 17.8786 17.8299 20.2596 14.8901 20.2596C11.9504 20.2596 9.56934 17.8786 9.56934 14.9388Z" fill="#BBBBBB"/>
<path d="M24.2236 11.0714V5.60558H18.7578L14.8903 1.73808L11.0228 5.60558H5.55695V11.0714L1.68945 14.9389L5.55695 18.8064V24.2722H11.0228L14.8903 28.1397L18.7578 24.2722H24.2236V18.8064L28.0911 14.9389L24.2236 11.0714ZM14.8903 21.9389C11.0228 21.9389 7.89029 18.8064 7.89029 14.9389C7.89029 11.0714 11.0228 7.93891 14.8903 7.93891C18.7578 7.93891 21.8903 11.0714 21.8903 14.9389C21.8903 18.8064 18.7578 21.9389 14.8903 21.9389Z" fill="#3C4159"/>
</g>
<defs>
<clipPath id="clip0_851_100">
<rect width="28" height="28" fill="white" transform="translate(0.451904 0.0625)"/>
</clipPath>
</defs>
</svg>
