<svg width="29" height="29" viewBox="0 0 29 29" fill="none" xmlns="http://www.w3.org/2000/svg">
<g clip-path="url(#clip0_851_92)">
<path fill-rule="evenodd" clip-rule="evenodd" d="M11.1205 11.2092C9.04182 13.2879 9.04182 16.6553 11.1205 18.734C13.1992 20.8127 16.5666 20.8127 18.6453 18.734L11.1205 11.2092Z" fill="white"/>
<path d="M18.6453 18.734C20.724 16.6553 20.724 13.2879 18.6453 11.2092C16.5666 9.13052 13.1992 9.13052 11.1205 11.2092L18.6453 18.734Z" fill="#BBBBBB"/>
<path fill-rule="evenodd" clip-rule="evenodd" d="M24.2171 24.306L19.8324 19.9214C17.0977 22.6561 12.6677 22.6561 9.93292 19.9214C7.19818 17.1866 7.19818 12.7566 9.93292 10.0219L5.54827 5.63721L5.54827 11.1067L1.68334 14.9716L5.54827 18.8365V24.306H11.0177L14.8827 28.1709L18.7476 24.306L24.2171 24.306Z" fill="white"/>
<path d="M18.7476 5.63721L14.8827 1.77228L11.0177 5.63721L5.54827 5.63721L9.93292 10.0219C12.6677 7.28713 17.0977 7.28713 19.8324 10.0219C22.5671 12.7566 22.5671 17.1866 19.8324 19.9214L24.2171 24.306L24.2171 18.8365L28.082 14.9716L24.2171 11.1067L24.2171 5.63721L18.7476 5.63721Z" fill="#3C4159"/>
</g>
<defs>
<clipPath id="clip0_851_92">
<rect width="28" height="28" fill="white" transform="matrix(0 1 -1 0 28.4519 0.097168)"/>
</clipPath>
</defs>
</svg>
