<svg width="29" height="29" viewBox="0 0 29 29" fill="none" xmlns="http://www.w3.org/2000/svg">
<g clip-path="url(#clip0_851_77)">
<path d="M9.56934 15.0938C9.56934 12.1541 11.9504 9.77303 14.8901 9.77303C17.8299 9.77303 20.2109 12.1541 20.2109 15.0938C20.2109 18.0336 17.8299 20.4146 14.8901 20.4146C11.9504 20.4146 9.56934 18.0336 9.56934 15.0938Z" fill="white"/>
<path d="M24.2236 11.2264V5.76058H18.7578L14.8903 1.89308L11.0228 5.76058H5.55695V11.2264L1.68945 15.0939L5.55695 18.9614V24.4272H11.0228L14.8903 28.2947L18.7578 24.4272H24.2236V18.9614L28.0911 15.0939L24.2236 11.2264ZM14.8903 22.0939C11.0228 22.0939 7.89029 18.9614 7.89029 15.0939C7.89029 11.2264 11.0228 8.09391 14.8903 8.09391C18.7578 8.09391 21.8903 11.2264 21.8903 15.0939C21.8903 18.9614 18.7578 22.0939 14.8903 22.0939Z" fill="white"/>
</g>
<defs>
<clipPath id="clip0_851_77">
<rect width="28" height="28" fill="white" transform="translate(0.451904 0.217491)"/>
</clipPath>
</defs>
</svg>
