<svg width="28" height="28" viewBox="0 0 28 28" fill="none" xmlns="http://www.w3.org/2000/svg">
<path d="M18.975 13.9388C18.975 11.9091 17.802 10.1553 16.1 9.31009V11.8516L18.9232 14.6748C18.9577 14.4333 18.975 14.1861 18.975 13.9388ZM21.85 13.9388C21.85 15.0198 21.6142 16.0376 21.229 16.9748L22.9712 18.7171C23.7187 17.2853 24.15 15.6638 24.15 13.9388C24.15 9.01684 20.7057 4.89984 16.1 3.85334V6.22809C19.4235 7.21709 21.85 10.2933 21.85 13.9388ZM4.9162 3.58884L3.44995 5.05509L8.8837 10.4888H3.44995V17.3888H8.04995L13.8 23.1388V15.4051L18.6932 20.2983C17.9227 20.8906 17.0545 21.3678 16.1 21.6553V24.0301C17.6812 23.6678 19.1245 22.9433 20.3377 21.9486L22.6837 24.2888L24.15 22.8226L13.8 12.4726L4.9162 3.58884ZM13.8 4.73884L11.3965 7.14234L13.8 9.54584V4.73884Z" fill="#3C4159"/>
<path d="M3.44995 5.05509L4.9162 3.58884L13.8 12.4726L24.15 22.8226L22.6837 24.2888L20.3377 21.9486L18.6932 20.2983L13.8 15.4051L8.8837 10.4888L3.44995 5.05509Z" fill="url(#paint0_linear_851_109)"/>
<defs>
<linearGradient id="paint0_linear_851_109" x1="3.77339" y1="4.44923" x2="23.8265" y2="24.5024" gradientUnits="userSpaceOnUse">
<stop offset="0.09375" stop-color="#FF004B"/>
<stop offset="1" stop-color="#FF00C7"/>
</linearGradient>
</defs>
</svg>
