<svg width="29" height="25" viewBox="0 0 29 25" fill="none" xmlns="http://www.w3.org/2000/svg">
<g clip-path="url(#clip0_683_62)">
<path d="M19.9375 12.5C19.9375 10.6615 18.705 9.07292 16.9167 8.30729V10.6094L19.8831 13.1667C19.9194 12.9479 19.9375 12.724 19.9375 12.5ZM22.9583 12.5C22.9583 13.4792 22.7106 14.401 22.3058 15.25L24.1365 16.8281C24.9219 15.5313 25.375 14.0625 25.375 12.5C25.375 8.04167 21.756 4.3125 16.9167 3.36458V5.51562C20.4088 6.41146 22.9583 9.19792 22.9583 12.5ZM5.16563 3.125L3.625 4.45313L9.33438 9.375H3.625V15.625H8.45833L14.5 20.8333V13.8281L19.6415 18.2604C18.8319 18.7969 17.9196 19.2292 16.9167 19.4896V21.6406C18.5781 21.3125 20.0946 20.6562 21.3694 19.7552L23.8344 21.875L25.375 20.5469L14.5 11.1719L5.16563 3.125ZM14.5 4.16667L11.9746 6.34375L14.5 8.52083V4.16667Z" fill="url(#paint0_linear_683_62)" fill-opacity="0.5"/>
<path d="M3.625 4.45312L5.16563 3.125L14.5 11.1719L25.375 20.5469L23.8344 21.875L21.3694 19.7552L19.6415 18.2604L14.5 13.8281L9.33437 9.375L3.625 4.45312Z" fill="url(#paint1_linear_683_62)"/>
</g>
<defs>
<linearGradient id="paint0_linear_683_62" x1="21.2665" y1="5.87439" x2="10.357" y2="20.4637" gradientUnits="userSpaceOnUse">
<stop stop-color="white"/>
<stop offset="0.286458" stop-color="white"/>
<stop offset="0.666667" stop-color="#E9E9E9"/>
<stop offset="1" stop-color="#D4D4D4"/>
</linearGradient>
<linearGradient id="paint1_linear_683_62" x1="3.96484" y1="3.90434" x2="21.9307" y2="24.7447" gradientUnits="userSpaceOnUse">
<stop offset="0.09375" stop-color="#FF004B"/>
<stop offset="1" stop-color="#FF00C7"/>
</linearGradient>
<clipPath id="clip0_683_62">
<rect width="29" height="25" fill="white"/>
</clipPath>
</defs>
</svg>
