<svg width="50" height="46" viewBox="0 0 50 46" fill="none" xmlns="http://www.w3.org/2000/svg">
<g clip-path="url(#clip0_662_41)">
<path d="M40.3847 16.2917C42.0193 16.2917 43.5385 16.7325 44.8847 17.48L49.1924 12.1325C48.2693 11.4233 38.9616 3.83334 25 3.83334C11.0385 3.83334 1.73082 11.4233 0.807739 12.1133L24.9808 42.1283L25 42.1667L25.0193 42.1475L33.1154 32.1042C31.6539 30.4367 30.7693 28.2708 30.7693 25.875C30.7693 20.585 35.077 16.2917 40.3847 16.2917Z" fill="white" fill-opacity="0.3"/>
<path d="M40.3846 19.1667C36.673 19.1667 33.6538 22.1758 33.6538 25.875H37.0192C37.0192 24.0158 38.5192 22.5208 40.3846 22.5208C42.25 22.5208 43.75 24.0158 43.75 25.875C43.75 26.795 43.3653 27.6383 42.7692 28.2517L40.673 30.36C39.4615 31.5675 38.7115 33.2542 38.7115 35.0942V35.9375H42.0769C42.0769 33.4267 42.8269 32.4108 44.0577 31.2033L45.5577 29.67C46.5192 28.7117 47.1346 27.37 47.1346 25.8942C47.1153 22.1758 44.0961 19.1667 40.3846 19.1667ZM38.5577 42.0708H42.2115V38.4292H38.5577V42.0708Z" fill="url(#paint0_linear_662_41)"/>
</g>
<defs>
<linearGradient id="paint0_linear_662_41" x1="45.5982" y1="16.938" x2="29.9458" y2="35.6507" gradientUnits="userSpaceOnUse">
<stop stop-color="#4C8CF5"/>
<stop offset="0.484375" stop-color="#4CCCF5"/>
<stop offset="1" stop-color="#4CF5C2"/>
</linearGradient>
<clipPath id="clip0_662_41">
<rect width="50" height="46" fill="white"/>
</clipPath>
</defs>
</svg>
