<svg width="38" height="33" viewBox="0 0 38 33" fill="none" xmlns="http://www.w3.org/2000/svg">
<g clip-path="url(#clip0_587_46)">
<path d="M11 9.00003V26.4222C11 29.5778 11.9516 30 13.135 30H24.8651C26.0405 30 27 29.5993 27 26.4222V9L11 9.00003Z" fill="white"/>
<path d="M27 8.11367C27 6.979 26.048 6.06667 24.864 6.06667H22.2V4C22.2 3.44772 21.7523 3 21.2 3H16.8C16.2477 3 15.8 3.44772 15.8 4V6.06667H13.136C11.952 6.06667 11 6.979 11 8.11367V26H27V8.11367Z" fill="white" fill-opacity="0.3"/>
<mask id="mask0_587_46" style="mask-type:alpha" maskUnits="userSpaceOnUse" x="11" y="3" width="16" height="23">
<path d="M27 8.11367C27 6.979 26.048 6.06667 24.864 6.06667H22.2V4C22.2 3.44772 21.7523 3 21.2 3H16.8C16.2477 3 15.8 3.44772 15.8 4V6.06667H13.136C11.952 6.06667 11 6.979 11 8.11367V26H27V8.11367Z" fill="white"/>
</mask>
<g mask="url(#mask0_587_46)">
<path d="M11 6.07004V26.3959C11 30.0775 11.9516 30.57 13.135 30.57H24.8651C26.0405 30.57 27 30.1025 27 26.3959V6.07001L11 6.07004Z" fill="white"/>
</g>
</g>
<defs>
<clipPath id="clip0_587_46">
<rect width="38" height="33" fill="white"/>
</clipPath>
</defs>
</svg>
