<svg width="38" height="33" viewBox="0 0 38 33" fill="none" xmlns="http://www.w3.org/2000/svg">
<path fill-rule="evenodd" clip-rule="evenodd" d="M24.864 6.06667C26.048 6.06667 27 6.979 27 8.11367V9V26V26.4222C27 29.5993 26.0405 30 24.8651 30H13.135C11.9516 30 11 29.5778 11 26.4222V26V9.00003V8.11367C11 6.979 11.952 6.06667 13.136 6.06667H15.8V4C15.8 3.44772 16.2477 3 16.8 3H21.2C21.7523 3 22.2 3.44772 22.2 4V6.06667H24.864Z" fill="white" fill-opacity="0.25"/>
<path d="M23.7727 15L21.0455 18H23.0909C23.0909 20.4862 21.2602 22.5 19 22.5C18.308 22.5 17.6602 22.3088 17.0875 21.9788L16.092 23.0737C16.9375 23.655 17.9295 24 19 24C22.0136 24 24.4545 21.315 24.4545 18H26.5L23.7727 15ZM14.9091 18C14.9091 15.5138 16.7398 13.5 19 13.5C19.692 13.5 20.3398 13.6913 20.9125 14.0213L21.908 12.9263C21.0625 12.345 20.0705 12 19 12C15.9864 12 13.5455 14.685 13.5455 18H11.5L14.2273 21L16.9545 18H14.9091Z" fill="url(#paint0_linear_628_32)"/>
<defs>
<linearGradient id="paint0_linear_628_32" x1="24.7905" y1="10.8323" x2="19.1089" y2="25.2581" gradientUnits="userSpaceOnUse">
<stop stop-color="#4C8CF5"/>
<stop offset="0.484375" stop-color="#4CCCF5"/>
<stop offset="1" stop-color="#4CF5C2"/>
</linearGradient>
</defs>
</svg>
