<svg width="38" height="33" viewBox="0 0 38 33" fill="none" xmlns="http://www.w3.org/2000/svg">
<path fill-rule="evenodd" clip-rule="evenodd" d="M24.864 6.06667C26.048 6.06667 27 6.979 27 8.11367V9V26V26.4222C27 29.5993 26.0405 30 24.8651 30H13.135C11.9516 30 11 29.5778 11 26.4222V26V9.00003V8.11367C11 6.979 11.952 6.06667 13.136 6.06667H15.8V4C15.8 3.44772 16.2477 3 16.8 3H21.2C21.7523 3 22.2 3.44772 22.2 4V6.06667H24.864Z" fill="white" fill-opacity="0.25"/>
<path d="M17.1667 26.875V19.3125H14L20.3333 9V16.5625H23.5L17.1667 26.875Z" fill="url(#paint0_linear_623_221)"/>
<defs>
<linearGradient id="paint0_linear_623_221" x1="22.046" y1="7.86278" x2="13.769" y2="28.5502" gradientUnits="userSpaceOnUse">
<stop stop-color="#00FF66"/>
<stop offset="1" stop-color="#00FFB2"/>
</linearGradient>
</defs>
</svg>
